Coordinates
version=1
nRows=19
nColumns=36
inDegrees=yes

Units are S.I. units (second, meters, Newtons, ...)
If the header above contains a line with 'inDegrees', this indicates whether rotational values are in degrees (yes) or radians (no).

endheader
time	pelvis_tilt	pelvis_list	pelvis_rotation	pelvis_tx	pelvis_ty	pelvis_tz	hip_flexion_r	hip_adduction_r	hip_rotation_r	knee_angle_r	knee_angle_r_beta	ankle_angle_r	subtalar_angle_r	mtp_angle_r	hip_flexion_l	hip_adduction_l	hip_rotation_l	knee_angle_l	knee_angle_l_beta	ankle_angle_l	subtalar_angle_l	mtp_angle_l	lumbar_extension	lumbar_bending	lumbar_rotation	arm_flex_r	arm_add_r	arm_rot_r	elbow_flex_r	pro_sup_r	arm_flex_l	arm_add_l	arm_rot_l	elbow_flex_l	pro_sup_l
      1.08000000	    -12.01219945	      1.21812835	     -0.48952248	     -0.69942137	      1.33331529	     -0.58829352	     26.37004331	      0.15606275	      3.80981328	     44.97380749	      0.78494102	    -20.77742253	    -19.00803993	     -4.31834608	     22.22216051	     -1.18134048	     -1.59463419	     49.64895449	      0.86653773	    -28.02844105	    -15.45225156	     -4.31834608	     -7.17385410	     -0.44595246	     -0.82804043	     79.30716023	    -31.01044024	     37.37472966	     90.11427457	    102.17700919	     85.44883556	    -24.63152610	     27.47000710	     63.43647669	    107.20391190
      1.09000000	    -11.83319705	      1.52873680	     -0.03046375	     -0.69031667	      1.33733149	     -0.58889443	     26.53364738	     -0.51443852	      3.60867237	     42.07374392	      0.73432536	    -20.69625011	    -18.51902644	     -4.35429117	     24.01684248	     -0.78305371	     -1.37777624	     51.15668464	      0.89285258	    -27.06724634	    -16.11823819	     -4.35429117	     -8.06444151	     -0.76552985	     -1.14624552	     79.37104319	    -32.63575992	     37.50040180	     90.04882475	    102.19091295	     85.70627733	    -26.01102112	     27.33902534	     62.23830108	    107.39255394
      1.10000000	    -11.57202207	      1.81375710	      0.37436990	     -0.68151013	      1.34035665	     -0.58932091	     26.65543812	     -1.16141419	      3.37099594	     39.25702326	      0.68516431	    -21.00007902	    -18.21838733	     -4.49398231	     25.81021973	     -0.46922691	     -1.28940169	     52.63521055	      0.91865773	    -25.83230060	    -16.29816288	     -4.49398231	     -9.15083886	     -1.10164341	     -1.14913572	     79.87079361	    -34.92664897	     38.22684972	     90.20381251	    102.05488569	     86.39938929	    -27.10148108	     27.91477859	     60.16888397	    108.19288102
      1.11000000	    -11.38531310	      2.10821297	      0.84977256	     -0.67253407	      1.34237370	     -0.58999602	     26.79735699	     -1.89081261	      3.03522023	     36.44088185	      0.63601337	    -21.55872828	    -17.69432292	     -4.54381584	     27.69854779	     -0.10466675	     -1.23666128	     53.92618520	      0.94118948	    -24.83146838	    -16.76595883	     -4.54381584	    -10.21332354	     -1.20026841	     -1.54254076	     80.62407572	    -36.57782759	     39.01886039	     90.18039336	    101.99631167	     86.62540210	    -28.84959027	     28.01979877	     58.95610408	    108.35786398
      1.12000000	    -11.16124320	      2.44263303	      1.24401234	     -0.66359474	      1.34333557	     -0.59064933	     26.92690678	     -2.61329991	      2.74839306	     33.73415317	      0.58877204	    -22.59169789	    -17.70966282	     -4.67070432	     29.54822869	      0.24037515	     -1.31884149	     55.10528955	      0.96176874	    -23.28798352	    -16.52549762	     -4.67070432	    -11.35550813	     -1.25492798	     -1.92121340	     82.05169546	    -38.26570192	     40.81079612	     90.03031268	    101.72767945	     86.92988142	    -30.79993546	     28.52991080	     57.58559884	    108.79198553
      1.13000000	    -10.98207095	      2.79988543	      1.66252222	     -0.65462926	      1.34316543	     -0.59154272	     27.11947626	     -3.42289400	      2.32368104	     31.14742012	      0.54362503	    -23.47213425	    -16.97841684	     -4.70333111	     31.40462266	      0.71765868	     -1.30729196	     56.08265688	      0.97882702	    -21.99322547	    -17.03927753	     -4.70333111	    -12.38374884	     -1.53020444	     -2.21623608	     82.79048169	    -40.02544499	     41.49545045	     90.04344811	    101.67995716	     87.20970763	    -32.19593633	     28.79322841	     56.15628548	    108.81315031
      1.14000000	    -10.62886823	      3.02865193	      1.98879870	     -0.64592699	      1.34192924	     -0.59229883	     27.21118727	     -4.04514345	      1.99201012	     28.81469190	      0.50291125	    -24.69988148	    -16.60330780	     -4.81663665	     33.13543651	      0.93494262	     -1.42227026	     57.08886593	      0.99638868	    -19.87934353	    -16.34863029	     -4.81663665	    -13.62092090	     -1.81634936	     -1.77633325	     84.06985622	    -43.06867630	     43.22444610	     90.39601619	    101.38078274	     88.50935880	    -32.62985197	     30.88772763	     53.17988703	    109.06721386
      1.15000000	    -10.44674551	      3.31513558	      2.26573573	     -0.63694465	      1.33949443	     -0.59281778	     27.51002690	     -4.72640987	      1.66535350	     26.64111847	      0.46497523	    -25.73083745	    -15.62227073	     -4.92798507	     34.94498366	      1.23631064	     -1.45509666	     57.83924849	      1.00948532	    -17.96694755	    -15.74346241	     -4.92798507	    -14.58036829	     -2.10842977	     -1.56984784	     85.09831550	    -45.36643259	     44.35005247	     90.56055073	    100.99437673	     89.40042075	    -33.49579988	     32.80192662	     50.74967178	    109.22241170
      1.16000000	    -10.33297389	      3.60717805	      2.50309721	     -0.62768636	      1.33590934	     -0.59307258	     27.88638609	     -5.36867539	      1.26844726	     24.62611841	      0.42980685	    -26.68734762	    -14.61483990	     -5.02961510	     36.71080984	      1.49578797	     -1.52951449	     58.30080619	      1.01754102	    -16.25148470	    -14.96963544	     -5.02961510	    -15.37034001	     -2.31156435	     -1.57646456	     86.37715228	    -47.07415136	     45.73094421	     90.41943244	    100.59169252	     90.01698579	    -34.83223138	     34.90117150	     48.66928050	    109.32923458
      1.17000000	    -10.21911324	      3.89284772	      2.70186143	     -0.61813230	      1.33128315	     -0.59311737	     28.20223521	     -5.95320570	      0.81886391	     22.67808870	      0.39580732	    -27.68888014	    -13.65930522	     -5.12441977	     38.28080860	      1.72567059	     -1.63701061	     58.34310046	      1.01827920	    -14.80943651	    -14.28269602	     -5.12441977	    -16.04555385	     -2.51152793	     -1.57196660	     87.69529254	    -48.58971857	     47.11430306	     90.15970326	    100.15454753	     90.54913321	    -36.21280727	     37.39942912	     46.63660032	    109.54713974
      1.18000000	    -10.12037350	      4.22546706	      2.80011106	     -0.60828191	      1.32556348	     -0.59290133	     28.52618649	     -6.52182412	      0.37976918	     20.85556102	      0.36399821	    -28.91311411	    -12.85649447	     -5.26955264	     39.62871358	      1.90479813	     -1.91602528	     57.91153644	      1.01074699	    -13.68683144	    -13.79858753	     -5.26955264	    -16.60841458	     -2.84533834	     -1.42740804	     88.83391700	    -50.15105236	     48.35422822	     90.02041560	     99.35558529	     91.24467559	    -37.52161476	     40.61600829	     44.67872610	    109.85793172
      1.19000000	     -9.91214083	      4.49364955	      2.83436546	     -0.59805780	      1.31908172	     -0.59252451	     28.64007125	     -6.97966422	     -0.13689778	     19.00783215	      0.33174925	    -30.32316002	    -12.12506994	     -5.36701412	     40.59748349	      1.97519437	     -2.19516378	     56.97174923	      0.99434460	    -12.91895856	    -13.50634520	     -5.36701412	    -17.20680253	     -3.08969842	     -1.26934297	     90.13604153	    -51.56692831	     49.80846530	     89.91317040	     98.82312132	     91.78126285	    -38.99703669	     43.76892313	     43.41963018	    110.09828218
      1.20000000	     -9.68290402	      4.78271064	      2.74607136	     -0.58748779	      1.31166719	     -0.59199240	     28.71229407	     -7.39474514	     -0.61395455	     17.27619061	      0.30152641	    -31.70373366	    -11.32485019	     -5.45156810	     41.23349845	      2.00866290	     -2.51189803	     55.47103482	      0.96815220	    -12.44579912	    -13.35568591	     -5.45156810	    -17.75607161	     -3.36225707	     -0.98145194	     91.45967493	    -52.95544090	     51.22963917	     90.00161945	     98.31314088	     92.25225967	    -40.59098813	     47.14397236	     42.71225741	    110.32480694
      1.21000000	     -9.49595104	      5.10922481	      2.60466157	     -0.57665780	      1.30316663	     -0.59142997	     28.83624440	     -7.82612143	     -1.04266315	     15.74591628	      0.27481808	    -32.78469026	    -10.50524242	     -5.56035246	     41.63592216	      2.06957706	     -2.81347617	     53.46954527	      0.93321961	    -12.14167731	    -13.16636115	     -5.56035246	    -18.17645618	     -3.66590829	     -0.62403866	     93.03112767	    -54.39477523	     53.00907606	     90.30313788	     97.53626970	     92.81684595	    -42.27484683	     51.14555376	     42.16552186	    110.52166634
      1.22000000	     -9.21782058	      5.41745318	      2.41536389	     -0.56544697	      1.29391870	     -0.59079103	     28.85387855	     -8.23637909	     -1.55997314	     14.39889681	      0.25130816	    -33.61764063	     -9.63407726	     -5.67466236	     41.69342715	      2.04884268	     -3.18239976	     51.04536796	      0.89090974	    -12.03833488	    -12.83242949	     -5.67466236	    -18.67923118	     -3.94934263	     -0.20845481	     94.82305691	    -55.92650922	     54.96831801	     90.90270875	     96.64780060	     93.36406956	    -44.17363499	     55.21850055	     42.41519098	    110.71855857
      1.23000000	     -8.92800088	      5.76695944	      2.25430226	     -0.55369663	      1.28393440	     -0.59031922	     28.78926819	     -8.69914021	     -1.95744935	     13.13383215	      0.22922861	    -34.40768171	     -8.81170033	     -5.70549227	     41.43607547	      2.12361417	     -3.52929116	     48.15363015	      0.84043939	    -12.22985289	    -12.34499643	     -5.70549227	    -19.10337974	     -4.29010822	      0.21397759	     96.01109869	    -57.50068979	     55.94208311	     91.78917049	     96.48674788	     93.30151070	    -46.07065160	     57.42941667	     43.67105594	    110.95764855
      1.24000000	     -8.50379165	      5.93231509	      1.93751467	     -0.54194901	      1.27272604	     -0.58960358	     28.70091070	     -8.88260963	     -2.34374536	     12.22136468	      0.21330305	    -34.65066131	     -8.25648806	     -5.77580956	     41.01167890	      1.92677311	     -3.92419877	     45.31372815	      0.79087375	    -12.92425011	    -12.32668025	     -5.77580956	    -19.73209384	     -4.33491157	      0.31765411	     99.60427063	    -58.47526253	     60.00646797	     92.23339993	     95.96095316	     95.32097214	    -49.78576297	     65.44938404	     46.21264225	    111.56953843
      1.25000000	     -8.14397627	      6.15207203	      1.60742103	     -0.52974246	      1.26057315	     -0.58885106	     28.61248650	     -9.09981369	     -2.55517729	     11.31784992	      0.19753375	    -35.09289449	     -7.57157685	     -5.87174693	     40.45652757	      1.81676014	     -4.28366912	     42.23905362	      0.73721056	    -14.41675236	    -12.21483295	     -5.87174693	    -20.23033647	     -4.52291259	      0.45571716	    102.65272767	    -59.48204218	     63.14305163	     92.97263213	     95.02208864	     97.19525916	    -53.27281840	     71.74636120	     49.49741556	    111.11215059
      1.26000000	     -7.88341702	      6.35141486	      1.30135195	     -0.51718721	      1.24720348	     -0.58810248	     28.59873687	     -9.30071218	     -2.79673437	     10.49071504	      0.18309752	    -35.71220115	     -7.10812964	     -6.18104632	     39.94462884	      1.69001790	     -4.67570440	     39.22576381	      0.68461873	    -16.45708911	    -11.93573448	     -6.18104632	    -20.56797825	     -4.72038265	      0.43111077	    105.56338849	    -60.25929352	     65.98393892	     93.95768890	     91.82266001	     99.78449616	    -57.09869874	     78.52421122	     53.83809423	    108.47516601
